<?xml version="1.0" standalone="no"?>
<!DOCTYPE svg PUBLIC "-//W3C//DTD SVG 20010904//EN"
 "http://www.w3.org/TR/2001/REC-SVG-20010904/DTD/svg10.dtd">
<svg version="1.0" xmlns="http://www.w3.org/2000/svg"
 width="960.000000pt" height="960.000000pt" viewBox="0 0 960.000000 960.000000"
 preserveAspectRatio="xMidYMid meet">

<g transform="translate(0.000000,960.000000) scale(0.100000,-0.100000)"
fill="#000000" stroke="none">
<path d="M1600 9120 l0 -160 -160 0 -160 0 0 -160 0 -160 -160 0 -160 0 0
-3040 0 -3040 3520 0 3520 0 0 160 0 160 160 0 160 0 0 160 0 160 160 0 160 0
0 3040 0 3040 -3520 0 -3520 0 0 -160z m6400 -320 l0 -160 160 0 160 0 0
-2720 0 -2720 -160 0 -160 0 0 2720 0 2720 -3200 0 -3200 0 0 160 0 160 3200
0 3200 0 0 -160z m-5120 -1920 l0 -1440 160 0 160 0 0 -1280 0 -1280 -960 0
-960 0 0 2720 0 2720 800 0 800 0 0 -1440z m2240 0 l0 -1440 160 0 160 0 0
-1280 0 -1280 -960 0 -960 0 0 1280 0 1280 160 0 160 0 0 1440 0 1440 640 0
640 0 0 -1440z m2560 -1280 l0 -2720 -960 0 -960 0 0 1280 0 1280 160 0 160 0
0 1440 0 1440 800 0 800 0 0 -2720z"/>
<path d="M640 2080 l0 -160 -160 0 -160 0 0 -160 0 -160 160 0 160 0 0 -160 0
-160 320 0 320 0 0 -320 0 -320 -480 0 -480 0 0 -160 0 -160 480 0 480 0 0
160 0 160 160 0 160 0 0 320 0 320 -160 0 -160 0 0 160 0 160 -320 0 -320 0 0
160 0 160 480 0 480 0 0 160 0 160 -480 0 -480 0 0 -160z"/>
<path d="M4480 1920 l0 -320 -320 0 -320 0 0 -160 0 -160 -160 0 -160 0 0
-320 0 -320 160 0 160 0 0 -160 0 -160 320 0 320 0 0 160 0 160 160 0 160 0 0
800 0 800 -160 0 -160 0 0 -320z m0 -960 l0 -320 -320 0 -320 0 0 320 0 320
320 0 320 0 0 -320z"/>
<path d="M5440 2080 l0 -160 -160 0 -160 0 0 -160 0 -160 160 0 160 0 0 -160
0 -160 320 0 320 0 0 -320 0 -320 -480 0 -480 0 0 -160 0 -160 480 0 480 0 0
160 0 160 160 0 160 0 0 320 0 320 -160 0 -160 0 0 160 0 160 -320 0 -320 0 0
160 0 160 480 0 480 0 0 160 0 160 -480 0 -480 0 0 -160z"/>
<path d="M6720 1120 l0 -800 160 0 160 0 0 320 0 320 320 0 320 0 0 160 0 160
160 0 160 0 0 160 0 160 -160 0 -160 0 0 160 0 160 -480 0 -480 0 0 -800z
m960 320 l0 -160 -320 0 -320 0 0 160 0 160 320 0 320 0 0 -160z"/>
<path d="M8640 1760 l0 -160 -160 0 -160 0 0 -480 0 -480 160 0 160 0 0 -160
0 -160 320 0 320 0 0 160 0 160 -320 0 -320 0 0 480 0 480 320 0 320 0 0 160
0 160 -320 0 -320 0 0 -160z"/>
<path d="M1920 960 l0 -640 160 0 160 0 0 480 0 480 320 0 320 0 0 -480 0
-480 160 0 160 0 0 480 0 480 -160 0 -160 0 0 160 0 160 -480 0 -480 0 0 -640z"/>
</g>
</svg>
